<svg width="16" height="16" viewBox="0 0 16 16" fill="none" xmlns="http://www.w3.org/2000/svg">
<g clip-path="url(#clip0_408_93)">
<rect width="16" height="16" rx="4" fill="url(#paint0_linear_408_93)"/>
<g filter="url(#filter0_d_408_93)">
<path fill-rule="evenodd" clip-rule="evenodd" d="M12.5145 6.3087L16.5145 8.7087C16.8157 8.88942 17 9.21493 17 9.56619V14.4338C17 14.7851 16.8157 15.1106 16.5145 15.2913L12.5145 17.6913C12.1978 17.8813 11.8022 17.8813 11.4855 17.6913L7.4855 15.2913C7.1843 15.1106 7 14.7851 7 14.4338V9.56619C7 9.21493 7.1843 8.88942 7.4855 8.7087L11.4855 6.3087C11.8022 6.11869 12.1978 6.11869 12.5145 6.3087ZM12 14C13.1046 14 14 13.1046 14 12C14 10.8954 13.1046 10 12 10C10.8954 10 10 10.8954 10 12C10 13.1046 10.8954 14 12 14Z" fill="url(#paint1_linear_408_93)"/>
</g>
<g filter="url(#filter1_d_408_93)">
<path d="M2.605 7.0275C2.418 7.0275 2.25483 6.99083 2.1155 6.9175L2.143 6.71125C2.29333 6.77542 2.43908 6.8075 2.58025 6.8075C2.70492 6.8075 2.79658 6.78458 2.85525 6.73875C2.91575 6.69292 2.946 6.62508 2.946 6.53525C2.946 6.46558 2.92308 6.406 2.87725 6.3565C2.83142 6.307 2.74158 6.252 2.60775 6.1915C2.45008 6.12 2.33642 6.0485 2.26675 5.977C2.19892 5.90367 2.165 5.80925 2.165 5.69375C2.165 5.60942 2.187 5.53333 2.231 5.4655C2.275 5.39583 2.34008 5.34083 2.42625 5.3005C2.51242 5.26017 2.61692 5.24 2.73975 5.24C2.87908 5.24 3.01933 5.27025 3.1605 5.33075L3.13575 5.5425C2.99642 5.48567 2.86717 5.45725 2.748 5.45725C2.63617 5.45725 2.55183 5.47742 2.495 5.51775C2.44 5.55808 2.4125 5.61492 2.4125 5.68825C2.4125 5.72858 2.42167 5.76342 2.44 5.79275C2.46017 5.82208 2.49317 5.85142 2.539 5.88075C2.58667 5.91008 2.65725 5.94583 2.75075 5.988C2.92308 6.06683 3.04133 6.14567 3.1055 6.2245C3.1715 6.3015 3.2045 6.39225 3.2045 6.49675C3.2045 6.66542 3.15042 6.7965 3.04225 6.89C2.93592 6.98167 2.79017 7.0275 2.605 7.0275ZM4.19055 5.669C4.31705 5.669 4.41421 5.70475 4.48205 5.77625C4.55171 5.84592 4.58655 5.955 4.58655 6.1035V7H4.34455V6.1695C4.34455 6.065 4.32805 5.99442 4.29505 5.95775C4.26388 5.91925 4.20796 5.9 4.1273 5.9C4.0723 5.9 4.0118 5.91283 3.9458 5.9385C3.8798 5.96417 3.81746 5.999 3.7588 6.043V7H3.5168V5.13L3.7588 5.11075V5.713C3.7588 5.7405 3.75696 5.78175 3.7533 5.83675C3.81746 5.78358 3.88713 5.74233 3.9623 5.713C4.03746 5.68367 4.11355 5.669 4.19055 5.669ZM5.45866 5.669C5.6255 5.669 5.74925 5.71208 5.82991 5.79825C5.91241 5.88258 5.95366 6.01 5.95366 6.1805V7L5.75016 7.0165L5.72541 6.8735C5.65941 6.923 5.587 6.9615 5.50816 6.989C5.43116 7.01467 5.35325 7.0275 5.27441 7.0275C5.15708 7.0275 5.06541 6.99725 4.99941 6.93675C4.93341 6.87442 4.90041 6.78642 4.90041 6.67275C4.90041 6.55175 4.93616 6.45642 5.00766 6.38675C5.081 6.31708 5.19466 6.26942 5.34866 6.24375C5.45683 6.22542 5.57875 6.2135 5.71441 6.208V6.164C5.71441 6.0595 5.69058 5.98708 5.64291 5.94675C5.59708 5.90458 5.52191 5.8835 5.41741 5.8835C5.35875 5.8835 5.29275 5.89175 5.21941 5.90825C5.14608 5.92475 5.07458 5.94858 5.00491 5.97975L4.98841 5.77625C5.05991 5.74142 5.13875 5.71483 5.22491 5.6965C5.31108 5.67817 5.389 5.669 5.45866 5.669ZM5.14241 6.64525C5.14241 6.70942 5.15708 6.75525 5.18641 6.78275C5.21575 6.80842 5.26433 6.82125 5.33216 6.82125C5.39083 6.82125 5.45408 6.81025 5.52191 6.78825C5.58975 6.76625 5.65391 6.73508 5.71441 6.69475V6.39225C5.63375 6.39408 5.54758 6.40142 5.45591 6.41425C5.34408 6.42892 5.26341 6.45367 5.21391 6.4885C5.16625 6.52333 5.14241 6.57558 5.14241 6.64525ZM6.97155 5.669C7.02105 5.669 7.06963 5.67633 7.1173 5.691L7.11455 5.91375C7.06688 5.90642 7.02472 5.90275 6.98805 5.90275C6.83588 5.90275 6.7048 5.955 6.5948 6.0595V7H6.3528V6.1035C6.3528 6.021 6.34913 5.88625 6.3418 5.69925L6.55355 5.6745L6.57005 5.878C6.66722 5.73867 6.80105 5.669 6.97155 5.669ZM8.35046 6.197C8.35046 6.29233 8.34496 6.37025 8.33396 6.43075H7.51721C7.52454 6.57008 7.56121 6.66908 7.62721 6.72775C7.69321 6.78458 7.79863 6.813 7.94346 6.813C8.05163 6.813 8.17171 6.79467 8.30371 6.758L8.31746 6.9505C8.18729 7.00183 8.04888 7.0275 7.90221 7.0275C7.68954 7.0275 7.53096 6.96792 7.42646 6.84875C7.32379 6.72958 7.27246 6.56367 7.27246 6.351C7.27246 6.21167 7.29629 6.09067 7.34396 5.988C7.39346 5.88533 7.46221 5.8065 7.55021 5.7515C7.63821 5.6965 7.73996 5.669 7.85546 5.669C8.01679 5.669 8.13963 5.71667 8.22396 5.812C8.30829 5.9055 8.35046 6.03383 8.35046 6.197ZM8.11671 6.23L8.11946 6.1805C8.11946 6.07967 8.09379 6.0045 8.04246 5.955C7.99296 5.90367 7.92513 5.878 7.83896 5.878C7.74546 5.878 7.67029 5.90917 7.61346 5.9715C7.55846 6.03383 7.52638 6.12 7.51721 6.23H8.11671ZM9.54959 5.13L9.79159 5.11075V7L9.58534 7.0165L9.56059 6.846C9.43409 6.967 9.28925 7.0275 9.12609 7.0275C8.97942 7.0275 8.86209 6.97067 8.77409 6.857C8.68609 6.74333 8.64209 6.58475 8.64209 6.38125C8.64209 6.15575 8.69984 5.98067 8.81534 5.856C8.93084 5.73133 9.08575 5.669 9.28009 5.669C9.36992 5.669 9.45975 5.68092 9.54959 5.70475V5.13ZM8.88959 6.34825C8.88959 6.51142 8.91525 6.62875 8.96659 6.70025C9.01975 6.77175 9.09675 6.8075 9.19759 6.8075C9.31309 6.8075 9.43042 6.75067 9.54959 6.637V5.922C9.45975 5.89817 9.37909 5.88625 9.30759 5.88625C9.02892 5.88625 8.88959 6.04025 8.88959 6.34825ZM2.48125 9.78825H3.177L3.1825 10H2.23375V8.27025H2.48125V9.78825ZM3.71097 10H3.46897V8.691H3.71097V10ZM3.59547 8.482C3.54964 8.482 3.51389 8.47008 3.48822 8.44625C3.46256 8.42058 3.44972 8.38483 3.44972 8.339C3.44972 8.295 3.46256 8.26017 3.48822 8.2345C3.51389 8.20883 3.54964 8.196 3.59547 8.196C3.64131 8.196 3.67614 8.20883 3.69997 8.2345C3.72564 8.25833 3.73847 8.29317 3.73847 8.339C3.73847 8.38483 3.72564 8.42058 3.69997 8.44625C3.67431 8.47008 3.63947 8.482 3.59547 8.482ZM4.81903 8.669C4.9602 8.669 5.07478 8.724 5.16278 8.834C5.25078 8.94217 5.29478 9.098 5.29478 9.3015C5.29478 9.55267 5.23795 9.73692 5.12428 9.85425C5.01245 9.96975 4.8447 10.0275 4.62103 10.0275C4.46336 10.0275 4.30386 10.0055 4.14253 9.9615V8.13L4.38178 8.11075V8.6635C4.38178 8.7515 4.37995 8.81567 4.37628 8.856C4.43861 8.79917 4.50828 8.75425 4.58528 8.72125C4.66228 8.68642 4.7402 8.669 4.81903 8.669ZM4.90428 9.74425C4.95011 9.70758 4.98495 9.65808 5.00878 9.59575C5.03445 9.53342 5.04728 9.44725 5.04728 9.33725C5.04728 9.04575 4.94553 8.9 4.74203 8.9C4.6907 8.9 4.63203 8.91558 4.56603 8.94675C4.50003 8.97792 4.43861 9.01917 4.38178 9.0705V9.78825C4.46061 9.80658 4.54036 9.81575 4.62103 9.81575C4.75486 9.81575 4.84928 9.79192 4.90428 9.74425ZM6.26794 8.669C6.31744 8.669 6.36602 8.67633 6.41369 8.691L6.41094 8.91375C6.36327 8.90642 6.3211 8.90275 6.28444 8.90275C6.13227 8.90275 6.00119 8.955 5.89119 9.0595V10H5.64919V9.1035C5.64919 9.021 5.64552 8.88625 5.63819 8.69925L5.84994 8.6745L5.86644 8.878C5.9636 8.73867 6.09744 8.669 6.26794 8.669ZM7.12102 8.669C7.28785 8.669 7.4116 8.71208 7.49227 8.79825C7.57477 8.88258 7.61602 9.01 7.61602 9.1805V10L7.41252 10.0165L7.38777 9.8735C7.32177 9.923 7.24935 9.9615 7.17052 9.989C7.09352 10.0147 7.0156 10.0275 6.93677 10.0275C6.81943 10.0275 6.72777 9.99725 6.66177 9.93675C6.59577 9.87442 6.56277 9.78642 6.56277 9.67275C6.56277 9.55175 6.59852 9.45642 6.67002 9.38675C6.74335 9.31708 6.85702 9.26942 7.01102 9.24375C7.11918 9.22542 7.2411 9.2135 7.37677 9.208V9.164C7.37677 9.0595 7.35293 8.98708 7.30527 8.94675C7.25943 8.90458 7.18427 8.8835 7.07977 8.8835C7.0211 8.8835 6.9551 8.89175 6.88177 8.90825C6.80843 8.92475 6.73693 8.94858 6.66727 8.97975L6.65077 8.77625C6.72227 8.74142 6.8011 8.71483 6.88727 8.6965C6.97343 8.67817 7.05135 8.669 7.12102 8.669ZM6.80477 9.64525C6.80477 9.70942 6.81943 9.75525 6.84877 9.78275C6.8781 9.80842 6.92668 9.82125 6.99452 9.82125C7.05318 9.82125 7.11643 9.81025 7.18427 9.78825C7.2521 9.76625 7.31627 9.73508 7.37677 9.69475V9.39225C7.2961 9.39408 7.20993 9.40142 7.11827 9.41425C7.00643 9.42892 6.92577 9.45367 6.87627 9.4885C6.8286 9.52333 6.80477 9.57558 6.80477 9.64525ZM8.6339 8.669C8.6834 8.669 8.73199 8.67633 8.77965 8.691L8.7769 8.91375C8.72924 8.90642 8.68707 8.90275 8.6504 8.90275C8.49824 8.90275 8.36715 8.955 8.25715 9.0595V10H8.01515V9.1035C8.01515 9.021 8.01149 8.88625 8.00415 8.69925L8.2159 8.6745L8.2324 8.878C8.32957 8.73867 8.4634 8.669 8.6339 8.669ZM9.28348 10H9.04148V8.691H9.28348V10ZM9.16798 8.482C9.12215 8.482 9.0864 8.47008 9.06073 8.44625C9.03507 8.42058 9.02223 8.38483 9.02223 8.339C9.02223 8.295 9.03507 8.26017 9.06073 8.2345C9.0864 8.20883 9.12215 8.196 9.16798 8.196C9.21382 8.196 9.24865 8.20883 9.27248 8.2345C9.29815 8.25833 9.31098 8.29317 9.31098 8.339C9.31098 8.38483 9.29815 8.42058 9.27248 8.44625C9.24682 8.47008 9.21198 8.482 9.16798 8.482ZM10.7325 9.197C10.7325 9.29233 10.727 9.37025 10.716 9.43075H9.89929C9.90662 9.57008 9.94329 9.66908 10.0093 9.72775C10.0753 9.78458 10.1807 9.813 10.3255 9.813C10.4337 9.813 10.5538 9.79467 10.6858 9.758L10.6995 9.9505C10.5694 10.0018 10.431 10.0275 10.2843 10.0275C10.0716 10.0275 9.91304 9.96792 9.80854 9.84875C9.70587 9.72958 9.65454 9.56367 9.65454 9.351C9.65454 9.21167 9.67837 9.09067 9.72604 8.988C9.77554 8.88533 9.84429 8.8065 9.93229 8.7515C10.0203 8.6965 10.122 8.669 10.2375 8.669C10.3989 8.669 10.5217 8.71667 10.606 8.812C10.6904 8.9055 10.7325 9.03383 10.7325 9.197ZM10.4988 9.23L10.5015 9.1805C10.5015 9.07967 10.4759 9.0045 10.4245 8.955C10.375 8.90367 10.3072 8.878 10.221 8.878C10.1275 8.878 10.0524 8.90917 9.99554 8.9715C9.94054 9.03383 9.90846 9.12 9.89929 9.23H10.4988ZM11.3982 10.0275C11.3248 10.0275 11.2506 10.0202 11.1754 10.0055C11.1021 9.99083 11.037 9.97158 10.9802 9.94775L11.0077 9.74975C11.1415 9.79742 11.2698 9.82125 11.3927 9.82125C11.4825 9.82125 11.5494 9.8075 11.5934 9.78C11.6374 9.7525 11.6594 9.70758 11.6594 9.64525C11.6594 9.58842 11.6383 9.54533 11.5962 9.516C11.554 9.48483 11.4752 9.45275 11.3597 9.41975C11.2313 9.38125 11.1397 9.33267 11.0847 9.274C11.0315 9.21533 11.0049 9.13833 11.0049 9.043C11.0049 8.93483 11.0489 8.84592 11.1369 8.77625C11.2249 8.70475 11.3459 8.669 11.4999 8.669C11.6246 8.669 11.7428 8.68825 11.8547 8.72675L11.8327 8.9275C11.7117 8.89083 11.6035 8.8725 11.5082 8.8725C11.3303 8.8725 11.2414 8.9275 11.2414 9.0375C11.2414 9.06867 11.2488 9.09433 11.2634 9.1145C11.2781 9.13467 11.3056 9.15392 11.3459 9.17225C11.3863 9.19058 11.4468 9.21075 11.5274 9.23275C11.6613 9.27125 11.7566 9.31983 11.8134 9.3785C11.8721 9.43533 11.9014 9.516 11.9014 9.6205C11.9014 9.75067 11.8565 9.8515 11.7667 9.923C11.6787 9.99267 11.5558 10.0275 11.3982 10.0275Z" fill="white"/>
</g>
</g>
<defs>
<filter id="filter0_d_408_93" x="6" y="5.66619" width="12" height="13.6676" filterUnits="userSpaceOnUse" color-interpolation-filters="sRGB">
<feFlood flood-opacity="0" result="BackgroundImageFix"/>
<feColorMatrix in="SourceAlpha" type="matrix" values="0 0 0 0 0 0 0 0 0 0 0 0 0 0 0 0 0 0 127 0" result="hardAlpha"/>
<feOffset dy="0.5"/>
<feGaussianBlur stdDeviation="0.5"/>
<feComposite in2="hardAlpha" operator="out"/>
<feColorMatrix type="matrix" values="0 0 0 0 0 0 0 0 0 0 0 0 0 0 0 0 0 0 0.25 0"/>
<feBlend mode="normal" in2="BackgroundImageFix" result="effect1_dropShadow_408_93"/>
<feBlend mode="normal" in="SourceGraphic" in2="effect1_dropShadow_408_93" result="shape"/>
</filter>
<filter id="filter1_d_408_93" x="1.11548" y="4.61075" width="11.7859" height="6.91675" filterUnits="userSpaceOnUse" color-interpolation-filters="sRGB">
<feFlood flood-opacity="0" result="BackgroundImageFix"/>
<feColorMatrix in="SourceAlpha" type="matrix" values="0 0 0 0 0 0 0 0 0 0 0 0 0 0 0 0 0 0 127 0" result="hardAlpha"/>
<feOffset dy="0.5"/>
<feGaussianBlur stdDeviation="0.5"/>
<feComposite in2="hardAlpha" operator="out"/>
<feColorMatrix type="matrix" values="0 0 0 0 0 0 0 0 0 0 0 0 0 0 0 0 0 0 0.25 0"/>
<feBlend mode="normal" in2="BackgroundImageFix" result="effect1_dropShadow_408_93"/>
<feBlend mode="normal" in="SourceGraphic" in2="effect1_dropShadow_408_93" result="shape"/>
</filter>
<linearGradient id="paint0_linear_408_93" x1="8" y1="0" x2="8" y2="16" gradientUnits="userSpaceOnUse">
<stop stop-color="#FF60C0"/>
<stop offset="1" stop-color="#C00040"/>
</linearGradient>
<linearGradient id="paint1_linear_408_93" x1="12" y1="6" x2="12" y2="18" gradientUnits="userSpaceOnUse">
<stop stop-color="#BACEE3"/>
<stop offset="1" stop-color="#6E6859"/>
</linearGradient>
<clipPath id="clip0_408_93">
<rect width="16" height="16" rx="4" fill="white"/>
</clipPath>
</defs>
</svg>
