<svg width="16" height="16" viewBox="0 0 16 16" fill="none" xmlns="http://www.w3.org/2000/svg">
<g clip-path="url(#clip0_111_32)">
<path d="M4.308 14.256C3.10267 14.256 2.21733 13.952 1.652 13.344C1.08667 12.736 0.804 11.728 0.804 10.32C0.804 9.2 0.990667 7.99467 1.364 6.704C1.748 5.41333 2.356 4.30933 3.188 3.392C4.03067 2.464 5.09733 2 6.388 2C7.188 2 7.83333 2.176 8.324 2.528C8.81467 2.88 9.06 3.41867 9.06 4.144C9.06 4.60267 8.96933 4.96533 8.788 5.232C8.60667 5.488 8.324 5.616 7.94 5.616C7.556 5.616 7.252 5.47733 7.028 5.2C7.22 5.104 7.39067 4.912 7.54 4.624C7.68933 4.336 7.764 4.03733 7.764 3.728C7.764 3.44 7.684 3.20533 7.524 3.024C7.37467 2.84267 7.12933 2.752 6.788 2.752C6.22267 2.752 5.684 3.14133 5.172 3.92C4.66 4.688 4.244 5.65867 3.924 6.832C3.61467 8.00533 3.46 9.136 3.46 10.224C3.46 11.0347 3.59867 11.6533 3.876 12.08C4.15333 12.5067 4.65467 12.72 5.38 12.72C6.00933 12.72 6.59067 12.5813 7.124 12.304C7.65733 12.0267 8.116 11.632 8.5 11.12L8.868 11.28C8.60133 11.952 8.20667 12.512 7.684 12.96C7.16133 13.408 6.60133 13.7387 6.004 13.952C5.40667 14.1547 4.84133 14.256 4.308 14.256Z" fill="white"/>
<path d="M15 8.5V10C15 10.8284 14.3284 11.5 13.5 11.5H12.5C11.6716 11.5 11 10.8284 11 10V8.5M13 9.5V4.5M13 4.5L11.5 6M13 4.5L14.5 6" stroke="white" stroke-linecap="round" stroke-linejoin="round"/>
</g>
<defs>
<clipPath id="clip0_111_32">
<rect width="16" height="16" fill="white"/>
</clipPath>
</defs>
</svg>
