<svg width="16" height="16" viewBox="0 0 16 16" fill="none" xmlns="http://www.w3.org/2000/svg">
<path d="M15 8.5V10C15 10.8284 14.3284 11.5 13.5 11.5H12.5C11.6716 11.5 11 10.8284 11 10V8.5M13 9.5V4.5M13 4.5L11.5 6M13 4.5L14.5 6" stroke="white" stroke-linecap="round" stroke-linejoin="round"/>
<path fill-rule="evenodd" clip-rule="evenodd" d="M7.25 12.5C8.49264 12.5 9.5 10.4853 9.5 8C9.5 5.51472 8.49264 3.5 7.25 3.5C6.67485 3.5 6.1501 3.93161 5.75231 4.64172C5.45049 4.39102 5.11013 4.25 4.75 4.25C4.14972 4.25 3.60435 4.64178 3.20091 5.2803C2.91206 5.10045 2.58983 5 2.25 5C1.00736 5 0 6.34315 0 8C0 9.65685 1.00736 11 2.25 11C2.58983 11 2.91206 10.8995 3.20091 10.7197C3.60435 11.3582 4.14972 11.75 4.75 11.75C5.11013 11.75 5.45049 11.609 5.75231 11.3583C6.1501 12.0684 6.67485 12.5 7.25 12.5ZM3.20091 10.7197C3.96827 10.2419 4.5 9.20375 4.5 8C4.5 6.79625 3.96828 5.75809 3.20091 5.2803C2.76919 5.96358 2.5 6.9294 2.5 8C2.5 9.0706 2.76919 10.0364 3.20091 10.7197ZM5 8C5 9.33497 5.29066 10.5342 5.75231 11.3583C6.49191 10.7439 7 9.47085 7 8C7 6.52915 6.49191 5.25608 5.75231 4.64172C5.29066 5.46582 5 6.66503 5 8Z" fill="white"/>
</svg>
