<svg width="16" height="16" viewBox="0 0 16 16" fill="none" xmlns="http://www.w3.org/2000/svg">
<g clip-path="url(#clip0_4_1422)">
<path d="M15 10V13M15 15V14.5" stroke="white" stroke-linecap="round" stroke-linejoin="round"/>
<path fill-rule="evenodd" clip-rule="evenodd" d="M14 5H8V15H10C11.7185 15 13.1838 13.9163 13.75 12.3951V10C13.75 9.71854 13.843 9.45881 14 9.24988V5Z" fill="white" fill-opacity="0.5"/>
<mask id="path-3-inside-1_4_1422" fill="white">
<path fill-rule="evenodd" clip-rule="evenodd" d="M15 8.75C15.4135 8.75 15.9927 8.53794 15.9991 8.12452C15.9997 8.08309 16 8.04158 16 8C16 3.58172 12.4183 0 8 0C3.58172 0 0 3.58172 0 8C0 12.4183 3.58172 16 8 16C10.1318 16 12.0688 15.1662 13.5027 13.8069C13.7147 13.606 13.75 13.2921 13.75 13V10C13.75 9.30964 14.3096 8.75 15 8.75Z"/>
</mask>
<path fill-rule="evenodd" clip-rule="evenodd" d="M15 8.75C15.4135 8.75 15.9927 8.53794 15.9991 8.12452C15.9997 8.08309 16 8.04158 16 8C16 3.58172 12.4183 0 8 0C3.58172 0 0 3.58172 0 8C0 12.4183 3.58172 16 8 16C10.1318 16 12.0688 15.1662 13.5027 13.8069C13.7147 13.606 13.75 13.2921 13.75 13V10C13.75 9.30964 14.3096 8.75 15 8.75Z" fill="url(#paint0_angular_4_1422)"/>
<path d="M15.9991 8.12452L14.9992 8.10927L15.9991 8.12452ZM15 8C15 8.0365 14.9997 8.07292 14.9992 8.10927L16.9989 8.13978C16.9996 8.09326 17 8.04667 17 8H15ZM8 1C11.866 1 15 4.13401 15 8H17C17 3.02944 12.9706 -1 8 -1V1ZM1 8C1 4.13401 4.13401 1 8 1V-1C3.02944 -1 -1 3.02944 -1 8H1ZM8 15C4.13401 15 1 11.866 1 8H-1C-1 12.9706 3.02944 17 8 17V15ZM12.8148 13.0812C11.5592 14.2714 9.86575 15 8 15V17C10.3978 17 12.5784 16.061 14.1907 14.5327L12.8148 13.0812ZM14.75 13V10H12.75V13H14.75ZM14.75 10C14.75 9.86193 14.8619 9.75 15 9.75V7.75C13.7574 7.75 12.75 8.75736 12.75 10H14.75ZM14.1907 14.5327C14.7378 14.0141 14.75 13.294 14.75 13H12.75C12.75 13.054 12.7483 13.0967 12.7452 13.1315C12.7421 13.1663 12.7381 13.1856 12.7362 13.1932C12.7344 13.2004 12.7363 13.1894 12.7479 13.1675C12.7604 13.144 12.7819 13.1123 12.8148 13.0812L14.1907 14.5327ZM14.9992 8.10927C15.0014 7.96372 15.0585 7.84672 15.1139 7.77664C15.161 7.71699 15.1972 7.70168 15.1835 7.70896C15.173 7.71452 15.145 7.72661 15.1018 7.73672C15.059 7.74672 15.0218 7.75 15 7.75V9.75C15.3503 9.75 15.7627 9.66572 16.1209 9.47563C16.4604 9.29551 16.9877 8.8772 16.9989 8.13978L14.9992 8.10927Z" fill="white" mask="url(#path-3-inside-1_4_1422)"/>
</g>
<defs>
<radialGradient id="paint0_angular_4_1422" cx="0" cy="0" r="1" gradientUnits="userSpaceOnUse" gradientTransform="translate(8 8) rotate(-90) scale(8)">
<stop stop-color="white"/>
<stop offset="0.354067" stop-color="white"/>
<stop offset="0.354167" stop-color="white" stop-opacity="0"/>
<stop offset="1" stop-color="white" stop-opacity="0"/>
</radialGradient>
<clipPath id="clip0_4_1422">
<rect width="16" height="16" fill="white"/>
</clipPath>
</defs>
</svg>
