<svg width="16" height="16" viewBox="0 0 16 16" fill="none" xmlns="http://www.w3.org/2000/svg">
<path d="M2.5 4C2.5 5.933 4.067 7.5 6 7.5C7.933 7.5 9.5 5.933 9.5 4C9.5 2.067 7.933 0.5 6 0.5C4.067 0.5 2.5 2.067 2.5 4Z" stroke="white" stroke-linecap="round" stroke-linejoin="round"/>
<path d="M1.5 15.5V13.5C1.5 11.2909 3.29086 9.5 5.5 9.5H6.5C8.70914 9.5 10.5 11.2909 10.5 13.5V15.5" stroke="white" stroke-linecap="round" stroke-linejoin="round"/>
<path fill-rule="evenodd" clip-rule="evenodd" d="M10.6346 9.87295C10.7097 9.95848 10.8146 10.0121 10.9276 10.0259C12.6589 10.2367 14 11.7118 14 13.5V15.5C14 15.7761 14.2239 16 14.5 16C14.7761 16 15 15.7761 15 15.5V13.5C15 11.0147 12.9853 9 10.5 9C10.2412 9 10.1216 9.35253 10.3083 9.53176C10.4219 9.64077 10.5308 9.75461 10.6346 9.87295ZM8.82954 9.64913C9.01426 9.76111 8.93234 10.039 8.7217 10.0868C8.65869 10.1012 8.5939 10.0906 8.53834 10.0576C8.35202 9.94703 8.15596 9.85116 7.95174 9.77159C7.7306 9.68542 7.69232 9.37093 7.91443 9.28729C7.96924 9.26665 8.03022 9.26645 8.08503 9.28708C8.34556 9.38515 8.59459 9.50669 8.82954 9.64913ZM9.76131 7.29443C9.52696 7.56178 9.64448 8 10 8C12.2091 8 14 6.20914 14 4C14 1.79086 12.2091 0 10 0C9.64448 0 9.52696 0.438224 9.76131 0.705572C9.79102 0.739464 9.82028 0.77376 9.84907 0.808452C9.94724 0.926709 10.0912 0.997461 10.2444 1.00981C11.787 1.1342 13 2.42544 13 4C13 5.57456 11.787 6.8658 10.2444 6.99019C10.0912 7.00254 9.94724 7.07329 9.84907 7.19155C9.82028 7.22624 9.79102 7.26054 9.76131 7.29443ZM8.56137 1.3668C8.70648 1.28735 8.74822 1.08888 8.62338 0.980333C8.46853 0.845692 8.30323 0.722765 8.12885 0.612933C8.05005 0.563306 7.94969 0.563463 7.8709 0.613096C7.7084 0.715465 7.73202 0.951847 7.89346 1.05589C8.02585 1.14121 8.15212 1.23522 8.27145 1.33711C8.35243 1.40625 8.46798 1.41794 8.56137 1.3668ZM8.56137 6.6332C8.70648 6.71265 8.74822 6.91112 8.62338 7.01967C8.46853 7.15431 8.30323 7.27724 8.12885 7.38707C8.05005 7.43669 7.94969 7.43654 7.8709 7.3869C7.7084 7.28454 7.73202 7.04815 7.89346 6.94411C8.02585 6.85879 8.15211 6.76478 8.27145 6.66289C8.35243 6.59375 8.46797 6.58206 8.56137 6.6332Z" fill="white" fill-opacity="0.5"/>
</svg>
