<svg width="16" height="16" viewBox="0 0 16 16" fill="none" xmlns="http://www.w3.org/2000/svg">
<g clip-path="url(#clip0_26_306)">
<rect width="16" height="16" rx="4" fill="#161E25"/>
<g filter="url(#filter0_d_26_306)">
<path d="M6.27428 3.6857L9.74856 12.3714C9.90042 12.751 10.2681 13 10.677 13H12.523C13.2304 13 13.7142 12.2855 13.4514 11.6286L10.2514 3.62861C10.0996 3.24895 9.73187 3 9.32297 3H6.73852C6.38478 3 6.14291 3.35726 6.27428 3.6857Z" fill="url(#paint0_linear_26_306)"/>
</g>
<g filter="url(#filter1_d_26_306)">
<path d="M5.74856 3.62861L2.54856 11.6286C2.28581 12.2855 2.76957 13 3.47703 13H5.32297C5.73187 13 6.09958 12.751 6.25144 12.3714L9.72572 3.6857C9.85709 3.35726 9.61522 3 9.26148 3H6.67703C6.26813 3 5.90042 3.24895 5.74856 3.62861Z" fill="url(#paint1_linear_26_306)"/>
</g>
</g>
<defs>
<filter id="filter0_d_26_306" x="2.23804" y="3" width="15.2859" height="18" filterUnits="userSpaceOnUse" color-interpolation-filters="sRGB">
<feFlood flood-opacity="0" result="BackgroundImageFix"/>
<feColorMatrix in="SourceAlpha" type="matrix" values="0 0 0 0 0 0 0 0 0 0 0 0 0 0 0 0 0 0 127 0" result="hardAlpha"/>
<feOffset dy="4"/>
<feGaussianBlur stdDeviation="2"/>
<feComposite in2="hardAlpha" operator="out"/>
<feColorMatrix type="matrix" values="0 0 0 0 0 0 0 0 0 0 0 0 0 0 0 0 0 0 0.25 0"/>
<feBlend mode="normal" in2="BackgroundImageFix" result="effect1_dropShadow_26_306"/>
<feBlend mode="normal" in="SourceGraphic" in2="effect1_dropShadow_26_306" result="shape"/>
</filter>
<filter id="filter1_d_26_306" x="-1.52393" y="3" width="15.2859" height="18" filterUnits="userSpaceOnUse" color-interpolation-filters="sRGB">
<feFlood flood-opacity="0" result="BackgroundImageFix"/>
<feColorMatrix in="SourceAlpha" type="matrix" values="0 0 0 0 0 0 0 0 0 0 0 0 0 0 0 0 0 0 127 0" result="hardAlpha"/>
<feOffset dy="4"/>
<feGaussianBlur stdDeviation="2"/>
<feComposite in2="hardAlpha" operator="out"/>
<feColorMatrix type="matrix" values="0 0 0 0 0 0 0 0 0 0 0 0 0 0 0 0 0 0 0.25 0"/>
<feBlend mode="normal" in2="BackgroundImageFix" result="effect1_dropShadow_26_306"/>
<feBlend mode="normal" in="SourceGraphic" in2="effect1_dropShadow_26_306" result="shape"/>
</filter>
<linearGradient id="paint0_linear_26_306" x1="8" y1="3" x2="8" y2="13" gradientUnits="userSpaceOnUse">
<stop stop-color="#0061E0"/>
<stop offset="1" stop-color="#00DDFF"/>
</linearGradient>
<linearGradient id="paint1_linear_26_306" x1="8" y1="3" x2="8" y2="13" gradientUnits="userSpaceOnUse">
<stop stop-color="#00DDFF"/>
<stop offset="1" stop-color="#0061E0"/>
</linearGradient>
<clipPath id="clip0_26_306">
<rect width="16" height="16" rx="4" fill="white"/>
</clipPath>
</defs>
</svg>
